<mxfile host="app.diagrams.net" modified="2023-02-02T03:06:38.272Z" agent="5.0 (X11; Linux x86_64) AppleWebKit/537.36 (KHTML, like Gecko) Chrome/108.0.0.0 Safari/537.36" etag="lrFgx49ALzwQYdotumvj" version="20.8.1" type="github">
  <diagram id="SlGQAyXAIa_Ibs_cdTL7" name="第 1 页">
    <mxGraphModel dx="1562" dy="879" grid="1" gridSize="10" guides="1" tooltips="1" connect="1" arrows="1" fold="1" page="1" pageScale="1" pageWidth="827" pageHeight="1169" math="1" shadow="0">
      <root>
        <mxCell id="0" />
        <mxCell id="1" parent="0" />
        <mxCell id="ovte4Cg9hebVTWwPrr68-1" value="研究目标：" style="rounded=0;whiteSpace=wrap;html=1;fillColor=#ffe6cc;strokeColor=none;" vertex="1" parent="1">
          <mxGeometry x="160" y="270" width="520" height="60" as="geometry" />
        </mxCell>
        <mxCell id="ovte4Cg9hebVTWwPrr68-2" value="关键问题" style="rounded=0;whiteSpace=wrap;html=1;fillColor=#f5f5f5;fontColor=#333333;strokeColor=none;" vertex="1" parent="1">
          <mxGeometry x="200" y="380" width="120" height="60" as="geometry" />
        </mxCell>
        <mxCell id="ovte4Cg9hebVTWwPrr68-3" value="关键问题" style="text;html=1;align=center;verticalAlign=middle;resizable=0;points=[];autosize=1;strokeColor=none;fillColor=none;rotation=-90;" vertex="1" parent="1">
          <mxGeometry x="140" y="395" width="70" height="30" as="geometry" />
        </mxCell>
        <mxCell id="ovte4Cg9hebVTWwPrr68-4" value="研究内容" style="text;html=1;align=center;verticalAlign=middle;resizable=0;points=[];autosize=1;strokeColor=none;fillColor=none;rotation=-90;" vertex="1" parent="1">
          <mxGeometry x="140" y="510" width="70" height="30" as="geometry" />
        </mxCell>
      </root>
    </mxGraphModel>
  </diagram>
</mxfile>
